<svg viewBox="0 0 791.97 477.64" xmlns="http://www.w3.org/2000/svg"><path d="m25.42 338.44c.64-1.29 1.3-2.47 2.13-2.62 1.36-.24 3.07 1.69 4.61 2.62z" fill="#51eaea"/><path d="m99.81 187.07s-56.22 79.93-73.68 119.93-15.75 38.15-15.75 38.15l42.74.06s.3.45 4.72-19.07c5.63-24.83 19.42-70.24 23.21-79s14.2-27.45 14.2-27.45z" fill="#ffdca4"/><path d="m151.41 120.11s-15.71-115 59.51-119.32c0 0 34.71-8.42 58.63 29.72 0 0-31.46 5.84-37.14 8.24l18 18.6s-31.41-2.57-37.74-.35l17.12 16.12-27.38-.54 17.52 13s-26.93-5.75-32.62-6.22l10.05 7.64s-22.45 9-26.5 21.63-4.06 13.2-4.06 13.2z" fill="#35ba47"/><path d="m157.89 115.55s38.74-49.23 92.46-18.73c0 0 17.62 14 23.25 22.65a49.36 49.36 0 0 1 8.15 28.11s-16.71-10.73-23-13.5-10.89-9.75-10.89-9.75l-.29 5.88-6.89-1.84-4.13-13.25.59 8.5-8-12.81.86 13.44-27.37-4-2.4-11.71.16 14.11-11.13-11-1.2 9s-16.67-11.43-30.17-5.1z" fill="#98edc0"/><path d="m157.47 114.17s49.49 1.09 62.9 53.22 4.92 74.35 4.92 74.35l-20.66-35.89 6-4.5-5.78-7.41 1-5.86-4.91-4.79.7-5.74a11.77 11.77 0 0 0 -1.11-8.93c-2.61-4.18-17.63-12-17.63-12l-1.34-15.93-3.56 1-3.27-10-4.08 5s-7.02-18.69-13.18-22.52z" fill="#35ba47"/><path d="m161.51 112.36s-24.66 9.57-4.79 64.82 33.92 68.93 33.92 68.93-10.83-61.5-8.19-66-.18-.92-.18-.92l-8.27 1.91 4.52-6.87-5.41-1.47 4.69-9.21-6.43-1 3.18-9.25-3.4-.9s-5.15-19.62-9.64-40.04z" fill="#98edc0"/><path d="m155.61 129.15s-57.38 4.41-62.08 69.94c0 0-4.41 24.84-2.18 35.56l20.43-28.36-3.66-13.8 4.86 6.73-.9-11.6 4.79 9.27-2.61-15.3 14.06 13.18s23-47.58 28.92-51.37z" fill="#35ba47"/><path d="m160.86 119.79s-47.22-77.79-54.39-114.51c0 0-25.67 17-18.79 51.15l12.68 7.11-10.21 2.09s2 4.44 5.16 10.18a50.75 50.75 0 0 0 10-1.55c4.77-1.33 1.69-1.26 1.69-1.26l-9.78 6s-3.3-5.2 2.2 5.72 40.35 36.89 53.16 46.19z" fill="#98edc0"/><path d="m141.76 115.25s-94.9-25.25-132.63-51.67c0 0 22.45 41.7 36.77 55.24l16.93-8.82-5.1 14.1 12.47-11.7-2.5 12 10.85-12.3-7 18.61s48.84 5 73.72 3.67l12.47-5z" fill="#35ba47"/><path d="m109.06 123.84s-47.68-7.33-48.85 55.8l2.86 21.63s6.77-55.87 73.59-65.17z" fill="#98edc0"/><path d="m171.8 112.51s-7.86-8.26-17.55-3.13c-9.29 4.93-13.18 14.64-4.4 24.92s19.75 5.93 25.26-3.41-3.31-18.38-3.31-18.38z" fill="#ffec00"/><path d="m152.58 117.37s-5.38-12.11-14.87-9.9-14.48 8.82-11.59 19.4 13.66 15.22 22.65 7.38c6.69-5.85 3.81-16.88 3.81-16.88z" fill="#f9e178"/><g fill="#f9943a"><path d="m80.06 248.66a1.17 1.17 0 0 0 -1.06-.66 8.92 8.92 0 0 0 -1.2 0c-.77 0-1.56.05-2.33 0-1.55-.08-3.06-.48-4.6-.64s-3.09-.2-4.61-.45-3-1.42-4.63-.36l-.05.42c1.4 1.42 3 .52 4.59.71s3.06.44 4.6.62 3.09.15 4.62.42c.76.13 1.51.36 2.27.54a9.08 9.08 0 0 0 1.14.2 1.16 1.16 0 0 0 1.21-.36z"/><path d="m76.91 255.39a1.19 1.19 0 0 0 -1.08-.67 11.57 11.57 0 0 0 -1.17-.11c-.78 0-1.58 0-2.35-.1-1.56-.14-3.07-.61-4.61-.84s-3.11-.33-4.64-.64-2.92-1.55-4.66-.56l-.06.42c1.35 1.47 3.06.64 4.6.9s3.07.58 4.61.82 3.12.28 4.64.62c.77.16 1.52.42 2.28.63a7.76 7.76 0 0 0 1.14.25 1.17 1.17 0 0 0 1.24-.3z"/><path d="m55.69 257.78v.24a1.15 1.15 0 0 0 0 .19 3.88 3.88 0 0 0 2.23.91 23.2 23.2 0 0 1 2.64 0c1.65.17 3.27.56 4.91.81.83.14 1.66.22 2.5.32a22.28 22.28 0 0 1 2.43.37c.81.16 1.61.43 2.41.64h.06a11.36 11.36 0 0 0 1.16.24h.08a1.2 1.2 0 0 0 1.23-.31v-.05s0-.4-.06-.41l-.06-.07a1.71 1.71 0 0 0 -.4-.33 2.32 2.32 0 0 0 -1-.28c-.37-.06-.85-.1-1.21-.12-.56 0-1.3 0-1.85-.06l-.6-.05a20 20 0 0 1 -2.42-.4c-.79-.16-1.57-.33-2.36-.45-1.23-.2-2.47-.31-3.69-.5-.38 0-.75-.12-1.12-.19a11.42 11.42 0 0 1 -1.84-.56 3.36 3.36 0 0 0 -3.04.06z"/><path d="m53 263.09v.25s0 .18 0 .19a4.23 4.23 0 0 0 2.37.92c.92 0 1.86-.08 2.77.05 1.75.18 3.47.56 5.21.82.87.15 1.76.24 2.64.34.67.07 1.92.26 2.58.4.85.18 1.7.45 2.55.66h.06c.4.1.81.18 1.22.24h.09a1.36 1.36 0 0 0 1.31-.3v-.08c-.07-.07-.1-.42-.19-.43l-.07-.07a2.27 2.27 0 0 0 -.53-.32 3.69 3.69 0 0 0 -1.26-.3c-.34-.05-.91-.1-1.25-.12l-1.91-.07-.62-.06a23.42 23.42 0 0 1 -2.51-.4c-.82-.16-1.63-.34-2.45-.46-1.26-.21-2.55-.34-3.82-.54l-1.15-.2a11.9 11.9 0 0 1 -1.91-.56 3.7 3.7 0 0 0 -3.13.04z"/><path d="m50.27 268.39v.27s0 .17 0 .19a4.53 4.53 0 0 0 2.5.92c1 .06 2 0 2.91.09 1.85.18 3.67.55 5.5.82.93.15 1.86.25 2.79.37.62.06 2.11.3 2.72.43.91.18 1.8.46 2.69.67h.06c.43.1.86.19 1.3.25h.09a1.53 1.53 0 0 0 1.39-.29v-.11c-.11-.1-.19-.44-.31-.46l-.09-.06a4 4 0 0 0 -.66-.32 5.19 5.19 0 0 0 -1.5-.3c-.31-.06-1-.11-1.3-.13l-2-.09-.63-.05c-.88-.09-1.74-.25-2.61-.41s-1.68-.34-2.52-.47c-1.31-.22-2.64-.37-4-.58-.4-.06-.8-.13-1.19-.21a14 14 0 0 1 -2-.56 4 4 0 0 0 -3.14.03z"/><path d="m47.56 273.7v.28s0 .17.06.19a5 5 0 0 0 2.64.93c1 .07 2 0 3 .11 2 .19 3.87.55 5.8.83 1 .16 1.95.27 2.93.39.57.06 2.3.34 2.87.47 1 .19 1.88.46 2.83.68h.06a13 13 0 0 0 1.36.26h.1a1.65 1.65 0 0 0 1.47-.28v-.13c-.16-.14-.28-.46-.45-.48l-.1-.06a4.84 4.84 0 0 0 -.79-.32 7.48 7.48 0 0 0 -1.75-.31c-.28-.05-1-.12-1.34-.13l-2-.1-.66-.06c-.9-.09-1.79-.25-2.69-.42s-1.73-.34-2.61-.48c-1.35-.22-2.72-.39-4.08-.61l-1.21-.19a18.82 18.82 0 0 1 -2.05-.55 4.36 4.36 0 0 0 -3.39-.02z"/><path d="m44.85 279v.29s0 .17.08.19a5.47 5.47 0 0 0 2.77.94c1.06.08 2.13 0 3.18.14 2 .2 4.07.53 6.1.83 1 .16 2 .28 3.07.42.52.05 2.49.38 3 .5 1 .19 2 .47 3 .69h.06c.48.11 1 .2 1.43.27h.1a1.8 1.8 0 0 0 1.55-.27v-.16c-.19-.17-.36-.48-.57-.5l-.13-.06a6.15 6.15 0 0 0 -.91-.32 10.32 10.32 0 0 0 -2-.32c-.26-.05-1.11-.12-1.38-.13l-2.11-.12-.68-.06c-.93-.1-1.86-.25-2.78-.42s-1.79-.34-2.69-.49c-1.4-.23-2.81-.42-4.21-.65l-1.27-.23a20.19 20.19 0 0 1 -2.13-.55 4.74 4.74 0 0 0 -3.48.01z"/><path d="m42.14 284.32v.3s.06.16.1.19a5.78 5.78 0 0 0 2.91.94c1.1.09 2.22 0 3.31.17 2.14.21 4.27.53 6.39.84 1.07.16 2.14.3 3.22.45.47.05 2.69.42 3.16.53 1 .2 2.07.48 3.11.7h.07q.75.17 1.5.27h.1a1.91 1.91 0 0 0 1.62-.26v-.18c-.23-.2-.44-.49-.7-.52l-.14-.06a7.74 7.74 0 0 0 -1-.31 12.92 12.92 0 0 0 -2.23-.34c-.24 0-1.19-.12-1.43-.14s-1.8-.1-2.17-.12l-.7-.07c-1-.1-1.92-.26-2.87-.42s-1.85-.35-2.78-.5c-1.44-.25-2.89-.45-4.33-.69l-1.31-.25a20.76 20.76 0 0 1 -2.2-.54 5.18 5.18 0 0 0 -3.63.01z"/><path d="m39.43 289.63v.31s.08.16.13.19a6.36 6.36 0 0 0 3 .95c1.15.1 2.31.07 3.45.2 2.24.21 4.47.52 6.69.84 1.12.17 2.24.31 3.35.47.44.05 2.89.47 3.31.56 1.09.21 2.17.49 3.26.72h.07c.52.11 1 .2 1.56.28h.11a2.08 2.08 0 0 0 1.7-.25v-.21a1.86 1.86 0 0 0 -.82-.55l-.16-.05c-.39-.12-.78-.23-1.17-.31a18.74 18.74 0 0 0 -2.48-.35c-.21 0-1.25-.13-1.47-.14s-1.9-.12-2.23-.14l-.72-.07c-1-.1-2-.26-3-.43l-2.87-.5c-1.48-.26-3-.48-4.46-.74l-1.35-.25c-.76-.13-1.51-.34-2.27-.53a5.49 5.49 0 0 0 -3.63 0z"/><path d="m36.72 294.94v.32c.06 0 .1.16.15.19a6.9 6.9 0 0 0 3.18 1c1.19.11 2.4.09 3.58.22 2.34.22 4.66.51 7 .85l3.49.5c.39 0 3.08.51 3.46.59 1.13.22 2.26.5 3.39.73h.03c.54.11 1.08.2 1.63.28h.11a2.21 2.21 0 0 0 1.78-.24v-.22a1.88 1.88 0 0 0 -.94-.58l-.18-.05c-.43-.12-.86-.23-1.3-.31a25 25 0 0 0 -2.72-.36c-.19 0-1.32-.13-1.52-.14l-2.3-.15-.74-.08c-1-.1-2-.26-3-.43s-2-.35-2.95-.51c-1.53-.27-3.06-.51-4.59-.78l-1.39-.26c-.79-.13-1.56-.35-2.35-.53a6 6 0 0 0 -3.82-.04z"/><path d="m34 300.24v.34c.06 0 .11.15.17.19a7.28 7.28 0 0 0 3.31 1c1.24.12 2.49.13 3.72.26 2.44.22 4.86.5 7.28.85l3.64.52c.34 0 3.27.56 3.6.63 1.19.22 2.36.51 3.54.73h.08c.56.11 1.13.2 1.69.29h.12a2.4 2.4 0 0 0 1.86-.23v-.25a2 2 0 0 0 -1.07-.6l-.19-.05c-.47-.12-1-.23-1.43-.31-1-.19-2-.27-3-.37-.16 0-1.38-.13-1.55-.14l-2.37-.17-.76-.08c-1-.11-2.09-.26-3.13-.43l-3-.53-4.72-.81-1.42-.27c-.82-.14-1.62-.35-2.42-.53a6.46 6.46 0 0 0 -3.95-.04z"/><path d="m31.3 305.55-.05.35c.07 0 .12.15.19.19a7.94 7.94 0 0 0 3.44 1c1.29.13 2.58.16 3.86.28 2.54.23 5.06.5 7.58.86 1.26.18 2.52.35 3.78.55.29 0 3.47.59 3.75.66 1.23.23 2.45.51 3.68.74h.08c.58.11 1.17.21 1.76.29h.13a2.52 2.52 0 0 0 1.93-.22v-.27a2.16 2.16 0 0 0 -1.19-.62l-.21-.05c-.52-.12-1-.23-1.56-.3-1.06-.19-2.14-.28-3.21-.39l-1.6-.15-2.43-.18-.78-.07c-1.08-.12-2.15-.28-3.22-.45s-2.08-.35-3.12-.53l-4.85-.85-1.47-.28c-.83-.15-1.66-.35-2.49-.52a6.82 6.82 0 0 0 -4-.04z"/><path d="m28.59 310.86-.05.36c.07 0 .14.15.21.19a8.51 8.51 0 0 0 3.58 1c1.33.14 2.67.18 4 .31 2.64.23 5.26.49 7.88.86 1.3.18 2.62.37 3.92.57.24 0 3.66.64 3.89.69 1.28.24 2.55.53 3.82.76h.09c.6.11 1.21.21 1.82.3h.14a2.69 2.69 0 0 0 2-.21v-.3a2.39 2.39 0 0 0 -1.32-.65h-.22c-.56-.11-1.12-.22-1.69-.3-1.14-.19-2.3-.29-3.45-.4l-1.65-.15-2.49-.19-.81-.08c-1.1-.12-2.21-.28-3.3-.45s-2.14-.36-3.21-.54l-5-.89-1.51-.29c-.86-.15-1.71-.35-2.56-.52a7.4 7.4 0 0 0 -4.09-.07z"/><path d="m25.88 316.17-.05.37c.08 0 .15.14.23.19a8.92 8.92 0 0 0 3.71 1c1.38.16 2.76.22 4.13.34 2.73.24 5.46.48 8.17.87 1.36.19 2.72.38 4.07.6.19 0 3.85.68 4 .72 1.32.25 2.64.54 4 .77h.09c.63.12 1.26.21 1.89.3h.14a2.89 2.89 0 0 0 2.08-.21v-.32a2.6 2.6 0 0 0 -1.45-.67h-.24c-.61-.11-1.21-.22-1.82-.3-1.22-.19-2.46-.29-3.7-.4-.09 0-1.59-.16-1.68-.16l-2.56-.21-.83-.08c-1.14-.12-2.27-.28-3.4-.45s-2.19-.36-3.28-.55l-5.06-.98-1.54-.3c-.88-.16-1.76-.35-2.64-.52a7.89 7.89 0 0 0 -4.26-.01z"/><path d="m23.17 321.48-.06.38c.09.06.17.14.26.19a9.51 9.51 0 0 0 3.85 1c1.42.16 2.84.24 4.27.37 2.82.24 5.65.47 8.46.87 1.4.19 2.81.4 4.21.63.14 0 4 .72 4.18.75 1.37.25 2.73.54 4.11.78h.09c.65.12 1.3.21 2 .31h.14a3 3 0 0 0 2.16-.19l.05-.35a2.75 2.75 0 0 0 -1.58-.69h-.26c-.64-.11-1.29-.22-1.94-.3-1.31-.18-2.63-.29-3.94-.41-.07 0-1.66-.16-1.73-.16l-2.63-.22-.84-.09c-1.17-.13-2.33-.29-3.49-.46s-2.25-.36-3.37-.56c-1.75-.31-3.49-.64-5.23-1l-1.59-.3c-.9-.16-1.8-.35-2.7-.51a8.44 8.44 0 0 0 -4.42-.04z"/><path d="m20.46 326.79-.06.39c.1.06.19.14.28.19a10.12 10.12 0 0 0 4 1c1.46.17 2.94.27 4.41.39 2.92.25 5.85.47 8.76.88 1.45.2 2.9.41 4.35.65l4.33.79c1.41.26 2.82.55 4.24.79h.1c.67.13 1.35.22 2 .32h.15a3.27 3.27 0 0 0 2.24-.19l.05-.37a3 3 0 0 0 -1.7-.72h-.28c-.69-.09-1.38-.21-2.07-.28-1.39-.19-2.79-.3-4.19-.43l-1.77-.2-2.69-.24-.87-.09c-1.19-.13-2.38-.29-3.57-.46s-2.31-.36-3.46-.57c-1.79-.32-3.57-.67-5.36-1l-1.62-.31c-.93-.17-1.85-.35-2.78-.51a9 9 0 0 0 -4.49-.03z"/><path d="m17.75 332.09-.06.41c.1.06.2.14.3.19a10.76 10.76 0 0 0 4.12 1c1.5.18 3 .3 4.54.42 3 .25 6.05.46 9.05.87q2.25.31 4.5.69l4.47.82c1.47.26 2.92.56 4.39.8h.09c.7.13 1.4.22 2.1.33h.15a3.42 3.42 0 0 0 2.32-.17l.05-.39a3.08 3.08 0 0 0 -1.82-.75h-.3c-.73-.09-1.46-.21-2.2-.28-1.47-.18-3-.3-4.43-.44l-1.82-.17-2.75-.24-.89-.1c-1.22-.13-2.44-.29-3.66-.46s-2.36-.37-3.54-.58c-1.83-.33-3.66-.7-5.49-1.05l-1.67-.32c-.94-.18-1.89-.35-2.84-.5a9.69 9.69 0 0 0 -4.61-.08z"/><path d="m52.23 342.52a3.63 3.63 0 0 0 -2.26-.81c-.78-.09-1.55-.2-2.33-.28-1.55-.18-3.11-.31-4.67-.45l-4.68-.43c-1.56-.16-3.11-.35-4.66-.57-3.1-.42-6.17-1.08-9.25-1.67-1.53-.31-3.07-.6-4.62-.83a10.29 10.29 0 0 0 -4.76-.08l-.06.42a10.31 10.31 0 0 0 4.57 1.2c1.55.19 3.11.33 4.68.45 3.12.26 6.25.45 9.35.88 1.55.21 3.1.45 4.64.71l4.62.85c1.54.29 3.08.59 4.62.83.77.14 1.55.24 2.32.36a3.55 3.55 0 0 0 2.39-.17z"/><path d="m82.15 243.37a.82.82 0 0 0 -.79-.65 5.27 5.27 0 0 0 -.89-.1c-.61 0-1.22 0-1.81-.07-1.2-.13-2.33-.58-3.5-.78s-2.38-.29-3.54-.59-2.15-1.5-3.56-.5l-.07.42c.94 1.44 2.31.6 3.49.84s2.33.54 3.5.76 2.39.24 3.54.56c.58.15 1.14.41 1.71.61a7 7 0 0 0 .87.23.81.81 0 0 0 1-.31z"/><path d="m84.53 237.88c-.17-.56-.44-.62-.72-.67a5.59 5.59 0 0 0 -.82-.12c-.56 0-1.13 0-1.68-.11-1.11-.15-2.16-.53-3.25-.76s-2.19-.37-3.26-.67-2-1.43-3.31-.47l-.09.41c.84 1.42 2.13.68 3.21.93s2.17.5 3.26.72 2.2.33 3.27.64c.53.15 1 .4 1.58.59a4.55 4.55 0 0 0 .8.23.76.76 0 0 0 .92-.31z"/><path d="m85.28 232.18c-.13-.56-.38-.62-.63-.67a3.93 3.93 0 0 0 -.76-.15c-.51-.06-1-.06-1.55-.15-1-.18-2-.49-3-.74s-2-.45-3-.76-1.79-1.35-3.06-.44l-.1.41c.73 1.39 1.94.75 2.93 1s2 .46 3 .7 2 .4 3 .71c.49.15 1 .39 1.44.58a4.91 4.91 0 0 0 .75.21c.24.07.49.13.86-.3z"/><path d="m87.45 226.89c-.09-.55-.32-.61-.55-.68a3.87 3.87 0 0 0 -.69-.17c-.46-.08-.95-.1-1.41-.19-.93-.19-1.84-.47-2.75-.73s-1.82-.51-2.71-.83-1.62-1.27-2.83-.42l-.11.41c.61 1.35 1.74.83 2.65 1.08s1.84.44 2.75.68 1.84.47 2.73.78c.45.16.88.39 1.32.56a4.11 4.11 0 0 0 .68.21c.23.06.45.12.81-.3z"/><path d="m90 222c-.06-.53-.27-.6-.47-.68a4.44 4.44 0 0 0 -.62-.19c-.42-.1-.87-.13-1.29-.24-.84-.21-1.68-.42-2.49-.7s-1.63-.6-2.44-.92c-.41-.14-.77-.43-1.17-.59a1.33 1.33 0 0 0 -1.42.2l-.13.4a1.35 1.35 0 0 0 1.06 1c.42.1.88.07 1.3.2.84.2 1.69.39 2.51.65a25.29 25.29 0 0 1 2.45.85c.41.16.79.38 1.19.55a4.48 4.48 0 0 0 .62.2c.21.05.42.11.77-.29z"/><path d="m91.4 216.31c0-.56-.2-.61-.38-.68l-.55-.2a10.68 10.68 0 0 0 -1.14-.33 17.72 17.72 0 0 1 -2.26-.66 20.1 20.1 0 0 1 -2.13-1.06 10.36 10.36 0 0 0 -1.08-.47 1.06 1.06 0 0 0 -1.31.16l-.14.4c.14.78.54.81.9 1a9.15 9.15 0 0 0 1.13.34 21.46 21.46 0 0 1 2.3.57 15.38 15.38 0 0 1 2.16.95 11.47 11.47 0 0 0 1.08.48 5.31 5.31 0 0 0 .56.2c.18.07.36.15.72-.27z"/></g><path d="m86.32 477.64c1.75-1.57 3.07-5.75 5-6.11 2.33-.42 5.11 1.82 7.43 1.38s4.79-.1 7.11-.53 4.15-3.76 6.47-4.2 4.46-1.94 6.78-2.38 4.83.17 7.15-.27 4.48-1.78 6.8-2.23 5.22 2.22 7.53 1.78 4.25-3 6.57-3.44 5.25 2.32 7.57 1.87 4-4.35 6.29-4.8 4.48-1.71 6.79-2.17 5.8 5 8.11 4.58 4.3-2.65 6.61-3.1 4.11-3.53 6.42-4 4.73-.41 7-.86 4.57-1.2 6.88-1.66 4.94.62 7.25.16 5.09 1.32 7.39.86 3.8-4.93 6.1-5.38 4.58-1.13 6.89-1.58 4.94.62 7.25.16 4.21-2.87 6.51-3.33 5.91 5.2 8.21 4.74 4.22-2.77 6.53-3.23 4-4.1 6.27-4.55 4.62-1.05 6.93-1.5 5 .87 7.33.42 3.87-4.52 6.18-5 5.57 3.48 7.88 3 4.83 0 7.14-.47 4.17-3.13 6.48-3.57 4.79-.18 7.1-.61 4.05-3.69 6.37-4.12 5.55 3.51 7.86 3.09 4.24-2.84 6.55-3.26 4.18-3.13 6.49-3.54 4.77-.25 7.09-.66 5.08 1.33 7.4.92 5.17 1.83 7.48 1.44 3.81-5.1 6.12-5.48 4.37-2.3 6.69-2.68 4.67-.7 7-1.08 4.66-.82 7-1.18 5.6 4.39 7.92 4 3.92-4.85 6.24-5.2 5.42 3.61 7.75 3.27 4.74-.19 7.06-.51 4.33-2.65 6.65-3 4.45-2 6.78-2.32 4.54-1.52 6.86-1.81 4.83.3 7.15 0 4.33-3.13 6.66-3.39 4.73-.39 7.06-.64 5.46 5.44 7.79 5.2 4.12-5.12 6.46-5.34 5.27 4.64 7.6 4.43 4.64-.78 7-1 4.2-5.54 6.54-5.71 4.67-1.05 7-1.2 5 3.84 7.37 3.71 4.78 1.13 7.12 1 4.51-3.91 6.85-4 4.89 4.27 7.23 4.2 4.6-3.37 6.94-3.41 4.73-1.51 7.09-1.52 4.74 3.64 7.09 3.65 4.75-2.28 7.11-2.25 4.75-.26 7.11-.2 4.91-3.09 7.27-3 4.38 6 6.73 6.09 4.74-.29 7.09-.14 4.9-1.59 7.25-1.41 5.07-2.27 7.41-2.05 4.06 5.09 6.4 5.33 4.93-1 7.26-.75 4.89-.45 7.21-.12 3.91 4.15 6.23 4.51 5.71-3.76 8-3.36 4.19 2.6 6.49 3 3.83 3.46 6.11 3.93 4.28 1.7 6.55 2.21 5.77-2.53 8-2 3.46 3.87 5.7 4.47 5.29-.8 7.51-.16 4.31 1.61 6.52 2.3 6.1-2 8.29-1.29 3.67 3 5.84 3.74 5 .4 7.18 1.22 1.91 5.63 4 6.49 3 3.48 5.1 4.38 8.15-4.1 10.21-3.15 4.07 2.09 6.1 3.08 1.06 5.9 3.06 6.92 3.82 2.15 5.79 3.21 4.05 1.89 6 3 6.16-.37 8.06.77 3.21 2.89 5.07 4.06 2.28 3.74 4.1 4.93 6.37-.2 8.16 1 .45 5.28 2.21 6.54 3 2.87 4.72 4.16 7.7-1 9.39.3 1.86 3.85 3.51 5.19a2.11 2.11 0 0 1 .62.88z" fill="#5ae0dc"/><path d="m447.72 361.93-.72.45c-39.73-22.5-89.84-41.56-152.13-50.45-137.87-19.69-235.51 2-294.87 25v133.27h567.4c-17.54-26.08-54.88-71.78-119.68-108.27z" fill="#fffde1"/><path d="m447 362.38a89.28 89.28 0 0 0 -34.06 38.23 81.22 81.22 0 0 0 -115.31 26.16 86.33 86.33 0 0 0 -11.79 1.76 74.42 74.42 0 0 0 -129.34-16.47c-1-.18-2-.34-3-.49a67.77 67.77 0 0 0 -77.95-52.41 76.06 76.06 0 0 0 -30.65-36.42 435.36 435.36 0 0 0 -44.9 14.78v132.68h3.8a81.09 81.09 0 0 1 61.32 0h18.78a88.19 88.19 0 0 1 112.77-35.42 88.19 88.19 0 0 1 112.77 35.42h18.78a81.14 81.14 0 0 1 61.34 0h81a73.85 73.85 0 0 1 39.39-11.32c1.52 0 3 .05 4.53.14a2.58 2.58 0 0 1 -.49 1c-1.14 1.28-4.26.78-5.42 2s-1.92 2.94-3.11 4.17-2.89 2-4.1 3.2a4.34 4.34 0 0 1 -1.12.79h65.68c-17.5-25.96-54.61-71.39-118.92-107.8z" fill="#fcefd9"/><path d="m106.65 339.11s-6.54-66.86 55.89-70.37c67.13-3.77 66.4 67 66.4 67z" fill="#fffcdc"/><path d="m164.54 337.73 38-.51s-2.5-28.7-19.51-28.7c-19.49 0-18.49 29.21-18.49 29.21z" fill="#ead9c1"/><path d="m123.44 285c-20 20.84-16.79 54.15-16.79 54.15l52.48-1.44c-24.46-12.63-32.84-37.65-35.69-52.71z" fill="#f9f4cf"/><path d="m111.71 376.06s11.38-24.27 17.21-19.93-.79 27.86-.79 27.86 29.78 13.86 29.59 19.05-31 1.76-31 1.76 2.43 35.33-4 34.61-12.17-32.86-12.17-32.86-21 23.83-28.15 19.61 17.48-31.6 17.48-31.6-27-11.52-23.45-18.62 35.28.12 35.28.12z" fill="#51eaea"/><path d="m115.07 387.43s2.34-5 3.54-4.1-.16 5.73-.16 5.73 6.13 2.86 6.09 3.93-6.38.36-6.38.36.5 7.27-.84 7.13-2.5-6.77-2.5-6.77-4.33 4.91-5.8 4 3.6-6.51 3.6-6.51-5.56-2.37-4.83-3.83 7.28.06 7.28.06z" fill="#ffec00"/><path d="m132.9 396.77a1.74 1.74 0 1 1 -2.65-2.24 1.69 1.69 0 0 1 2.42-.2 1.74 1.74 0 0 1 .23 2.44z" fill="#fff"/><path d="m140 399a1.45 1.45 0 0 1 -2.05.2 1.49 1.49 0 0 1 -.15-2.06 1.43 1.43 0 0 1 2-.17 1.44 1.44 0 0 1 .2 2.03z" fill="#fff"/><path d="m146.12 400.41a1.14 1.14 0 0 1 -1.63.16 1.18 1.18 0 0 1 -.11-1.63 1.14 1.14 0 1 1 1.74 1.47z" fill="#fff"/><path d="m122.41 375.05a1.77 1.77 0 0 1 0 2.49 1.74 1.74 0 1 1 -2.45-2.47 1.7 1.7 0 0 1 2.45-.02z" fill="#fff"/><path d="m125.19 368.13a1.44 1.44 0 1 1 -2 2 1.44 1.44 0 0 1 0-2 1.4 1.4 0 0 1 2 0z" fill="#fff"/><path d="m127.17 362.11a1.14 1.14 0 1 1 -1.61 1.62 1.16 1.16 0 0 1 0-1.61 1.12 1.12 0 0 1 1.61-.01z" fill="#fff"/><path d="m99.27 385.51a1.73 1.73 0 1 0 3.46 0 1.73 1.73 0 0 0 -3.46 0z" fill="#fff"/><path d="m92.44 382.58a1.43 1.43 0 1 0 2.86 0 1.43 1.43 0 1 0 -2.86 0z" fill="#fff"/><path d="m86.81 379.74a1.14 1.14 0 1 0 2.27 0 1.14 1.14 0 1 0 -2.27 0z" fill="#fff"/><path d="m101.73 405.43a1.74 1.74 0 0 0 2.24-1 1.77 1.77 0 0 0 -1.06-2.25 1.7 1.7 0 0 0 -2.19 1.05 1.72 1.72 0 0 0 1.01 2.2z" fill="#fff"/><path d="m96.66 410.89a1.44 1.44 0 0 0 1.87-.85 1.47 1.47 0 0 0 -.88-1.86 1.44 1.44 0 0 0 -1 2.71z" fill="#fff"/><path d="m92.08 415.24a1.16 1.16 0 0 0 1.5-.68 1.18 1.18 0 0 0 -.72-1.47 1.14 1.14 0 0 0 -.78 2.15z" fill="#fff"/><path d="m120.3 412.13a1.78 1.78 0 0 1 -1.07-2.24 1.75 1.75 0 0 1 2.25-1 1.74 1.74 0 0 1 -1.18 3.27z" fill="#fff"/><path d="m120.69 419.59a1.44 1.44 0 1 1 1-2.71 1.43 1.43 0 0 1 .84 1.84 1.4 1.4 0 0 1 -1.84.87z" fill="#fff"/><path d="m121.42 425.89a1.14 1.14 0 1 1 .78-2.15 1.15 1.15 0 0 1 .68 1.45 1.13 1.13 0 0 1 -1.46.7z" fill="#fff"/><path d="m223.7 395.82s2.09-19.46 6-23.53 20.26 14.91 20.26 14.91 23.45-4.31 27 1.12-8.75 23.8-8.75 23.8 10.44 16 9.79 21.24-28-.07-28-.07-11.36 12-17.78 16.32-9.76-15.57-9-24.56c0 0-19.93-7.61-20.8-11.93s21.28-17.3 21.28-17.3z" fill="#f97e2b"/><path d="m233.85 379.31a1.05 1.05 0 0 1 1.09.8c.16.35.32.71.46 1.07.28.72.52 1.46.73 2.21.43 1.49.81 3 1.31 4.45s1.12 2.89 1.64 4.36a17.39 17.39 0 0 1 .65 2.24 2.39 2.39 0 0 1 -.3 2.44.45.45 0 0 1 -.56.12 2 2 0 0 1 -1-1 8.14 8.14 0 0 1 -.31-1.1c-.18-.73-.31-1.47-.45-2.22a34.25 34.25 0 0 0 -.93-4.48 31 31 0 0 0 -1.69-4.24c-.33-.69-.64-1.38-.93-2.08-.16-.34-.28-.7-.43-1.05a1.06 1.06 0 0 1 .18-1.31.61.61 0 0 1 .54-.21z" fill="#fcb381"/><path d="m211.48 412.69.12-.23.08-.18a.45.45 0 0 1 .2-.21 1 1 0 0 1 .45-.1c.32 0 .63-.06.95-.08.64 0 1.28-.06 1.93-.05a31.23 31.23 0 0 0 3.87-.15c1.28-.15 2.55-.47 3.83-.73a17.74 17.74 0 0 1 1.94-.26 1.94 1.94 0 0 1 2.08.76.33.33 0 0 1 0 .4l-.13.17c-.19.24-.23.38-.41.51a1.19 1.19 0 0 1 -.44.26 5 5 0 0 1 -.94.13c-.63.06-1.28.06-1.92.06-1.3 0-2.6-.1-3.89 0a33.45 33.45 0 0 0 -3.83.59c-.64.12-1.28.22-1.93.28-.33 0-.66.05-1 .07s-.69.07-1.09-.68a.38.38 0 0 1 0-.33z" fill="#fcb381"/><path d="m232 440.16c-.63-.45-.55-.76-.47-1.07a4.76 4.76 0 0 1 .3-.9c.26-.59.6-1.16.8-1.76.42-1.2.44-2.5.8-3.71s.91-2.37 1.22-3.61a10.49 10.49 0 0 0 .18-2 2.09 2.09 0 0 1 .37-.91 1.7 1.7 0 0 1 1.11-.56.51.51 0 0 1 .5.25 1.8 1.8 0 0 1 .28 1.14 1.69 1.69 0 0 1 -.34.83 5.94 5.94 0 0 0 -1.11 1.56 27.45 27.45 0 0 0 -1 3.61 34.47 34.47 0 0 0 -1.08 3.59 17.33 17.33 0 0 0 -.06 1.91 4.83 4.83 0 0 1 -.11.94c-.05.31-.1.61-.86.77a.63.63 0 0 1 -.53-.08z" fill="#fcb381"/><path d="m264.61 394.57c.15.73-.06.84-.27 1s-.41.27-.62.39a14.73 14.73 0 0 1 -1.31.68 16.13 16.13 0 0 0 -2.58 1.42 17 17 0 0 0 -2.2 2c-.35.33-.72.66-1.07.94-.09.08-.19.14-.28.21a.8.8 0 0 1 -.28.18 1.68 1.68 0 0 1 -1-.07.59.59 0 0 1 -.4-.35 1.3 1.3 0 0 1 0-1.12 2.56 2.56 0 0 1 .57-.57 8.27 8.27 0 0 1 1.29-.86c.89-.48 1.83-.86 2.66-1.4a22.77 22.77 0 0 0 2.38-1.79 11.64 11.64 0 0 1 1.2-.89 6.65 6.65 0 0 1 .63-.39c.21-.13.41-.27 1 .21a.85.85 0 0 1 .3.49z" fill="#fcb381"/><path d="m240.84 409.45s-.08-5.9 1.41-5.86 4.06 4.52 4.06 4.52 4.46-.52 5 .38-2.8 3.83-2.8 3.83 3.22 4.7 1.95 5.13-4.9-1.16-4.9-1.16-1.56 3.15-3.25 3.29-1.66-5.11-1.66-5.11-3.93-.42-4.17-2 4.36-3.02 4.36-3.02z" fill="#d6320b"/><path d="m269 428.18c-.63.41-.82.24-1 .09s-.42-.3-.62-.46c-.4-.32-.78-.67-1.15-1a21.11 21.11 0 0 0 -2.31-2 26.23 26.23 0 0 0 -2.66-1.58 10.15 10.15 0 0 1 -1.28-.85 3.12 3.12 0 0 1 -.58-.51 1.53 1.53 0 0 1 -.15-1.08l.35-.46a1.45 1.45 0 0 1 1.07-.14 3.11 3.11 0 0 1 .65.41 14 14 0 0 1 1.16 1 25 25 0 0 0 2.22 2.15 20.09 20.09 0 0 0 2.58 1.69c.44.26.88.54 1.29.84.21.15.41.31.6.47s.42.3.2 1z" fill="#fcb381"/><path d="m438.41 138.92c-45.49-10-88.71-6.46-123.35 9.69-23.22 10.83-36 26.16-50.23 42.65 10.36-1.55 21.94.05 31.89 2.47 14.7 3.57 32.91 11.07 41.93 22.36h.11c19.06-33.09 49.6-65.29 99.65-77.17z" fill="#fffde1"/><path d="m264.83 191.26c10.36-1.55 21.94.05 31.89 2.47 14.7 3.57 32.91 11.07 41.93 22.36h.11c9.27-16.1 21.27-32 36.9-45.42-8.61-8.71-14.8-22-19.1-34.71a161.5 161.5 0 0 0 -41.5 12.67c-23.22 10.81-36 26.14-50.23 42.63z" fill="#ffedd2"/><path d="m371.67 389.08s.54 1 4.3 1.88 5.28.53 5.28.53l40-162.93-9.58-2.41z" fill="#dcdddd"/><path d="m338.76 216.07c12.4-2.89 25.78-1.44 38.69 1.49 14.35 3.27 31.45 11.15 39.85 21.59 5.94-33.64 13.81-66.89 21.08-100.22-50.02 11.87-80.56 44.07-99.62 77.14z" fill="#fb3569"/><path d="m438.41 138.92c-7.27 33.33-15.14 66.58-21.08 100.22 10.65-4.41 26.59-3.35 39.5 0 11.9 3.11 24.44 8.33 32.34 16.15h.07c-.24-35.42-1.01-87.7-50.83-116.37z" fill="#fffde1"/><path d="m421.37 217.61c2.52-.1 5.42 2.72 6.2.82 1.79-2.24 4.46-4 6.62-6.1 2 2 4.31.83 6.6 1.51l-.45 1a3.64 3.64 0 0 0 1.92.15v1.64l3.23 4.27-3.23.35v.9l-1.44-.74-4.12.45 5.55.46v2.73l2.4-1.67-2.1-1.08 3.8-.24.07.09.16-.1 7.67-.5c2.85-.18 5.63-.37 7.52-3-.49-1.61-3.67 2.9-3.79-1.56l-1.71 2.52a6.08 6.08 0 0 1 -1.66.43l-5.87.64 6.75-4.67a16.69 16.69 0 0 0 2.21-1.91 24.24 24.24 0 0 0 4.24-2.59 10 10 0 0 0 1.78.18 1.83 1.83 0 0 0 1.09.1c.64.89-.36 2.11-.59 2.6 2.17 2.81 4.91.5 7.62-.75a14.92 14.92 0 0 0 2-.62 3.17 3.17 0 0 1 2.63.74c-.49 2.46 2.81 3.78 1.47 4.81 2.44 1.22 4.52-1.46 6.59-2.78-.12 2.3 3.79 1.55 2 3.68l.84-.83c-1.73-14.09-5.19-28.67-12.23-42.23-7.75 1.65-14.14 1-17.61-12.9-2.14-8.54-10.14-15-20.21-19.41-5.23 23.75-10.71 47.64-15.47 71.5-.01.04-.39 1.67-.48 2.11z" fill="#fcefd9"/><path d="m264.85 191.26s2.5 5.85 12 9.89a47.55 47.55 0 0 0 15.57 3.76 20.85 20.85 0 0 0 15.66-6.25 15.73 15.73 0 0 0 10.63 16.75c12.46 4.64 19.94.68 19.94.68s6.38-13-10.24-20.47c-13.93-6.24-44-13.22-58.81-7.75a6.77 6.77 0 0 0 -3.8 2.77c-.22.27-.67.25-.95.62z" fill="#ffedd2"/><path d="m417.33 239.14s4.6 8.11 21.05 9.31 22.9-10.45 22.9-10.45-3.56 10.76 9.33 17.25 18.63 0 18.63 0-1.18-7.38-8.45-17.76c-8.9-12.69-36.3-9.91-36.3-9.91z" fill="#fffde1"/><path d="m338.76 216.07s3 6.76 14.27 10.66a43.33 43.33 0 0 0 13.68 1.75c12.62-1.87 15.75-5.9 16-6.73a18.11 18.11 0 0 0 13.21 17c13.43 4.09 21.41.4 21.41.4l-9.4-32.7s-44-10.67-69.17 9.62z" fill="#fb3569"/></svg>