<svg viewBox="0 0 417.32 130.36" xmlns="http://www.w3.org/2000/svg"><g stroke-miterlimit="10"><path d="m21.37 17.45c28.22-25.93 74.63-21.35 96.68 8.55 19.28 26.11 15 64.57-9.79 86.88-24.53 22.12-62.84 22.71-86.89 1.24-27.61-24.64-28.05-70.89 0-96.67z" fill="#d98e86" stroke="#d98e86"/><g stroke-width="2"><path d="m25.07 22.45c25.69-23.45 67.93-19.3 88.03 7.74 17.55 23.6 13.61 58.37-8.92 78.53-22.33 20-57.22 20.5-79.11 1.1-25.15-22.27-25.55-64.07 0-87.37z" fill="#d98e86" stroke="#fff"/><path d="m84.65 42.15q0 3.29-2.31 3.27l-1.34-.09-2.7-.18-.58.08.16.58c1.63 2 2.44 3.18 2.44 3.62a1.23 1.23 0 0 1 -.17.49h-.16a8 8 0 0 1 -2.86-1.41 7.33 7.33 0 0 0 -3.13-1.41 3.2 3.2 0 0 0 -1.84.65c-.63.43-1 .87-1 1.3q0 .16 4.87 6.27l.08.82-1 .15a22 22 0 0 0 -4.49-2.4v.33a9.15 9.15 0 0 0 .2 1.72 9.81 9.81 0 0 1 .19 1.48c0 .33-.69 1-2 2.08a5.57 5.57 0 0 0 -2.08 4.63c0 .76.06 2.57.18 5.41s.17 5.28.16 7.31q0 .83-.39 4.92t-.41 7.46a8.3 8.3 0 0 0 1 4.28c2-.71 3-2.56 3-5.57q0-1.31-2.49-8.63a3.41 3.41 0 0 1 1.56-2.12 4.62 4.62 0 0 1 2.63-.89c1.58 0 2.61.56 3.1 1.66a17.81 17.81 0 0 0 .89 2 25.5 25.5 0 0 0 5.82-3 2.77 2.77 0 0 1 2.36 2.8c0 1.7-.4 2.68-1.16 3h-.18a1.44 1.44 0 0 1 -1.22-.75 13.26 13.26 0 0 0 -3.3 4.17c-.55 1.25-1.16 2.49-1.82 3.72s-2.39 2.9-5.18 5c-1.81 1.36-2.79 2.12-3 2.28a4.26 4.26 0 0 0 -1.44 2l-.59 1.82a1.2 1.2 0 0 1 -1.28.89q-2 0-2-1.32a11.75 11.75 0 0 0 .17-1.64v-.49a25.54 25.54 0 0 1 -7.25-5.87 16.69 16.69 0 0 1 -2.82-6.74 6.7 6.7 0 0 0 -1-2.76 5 5 0 0 0 -2.62-1c-2.18-.34-3.26-1-3.26-2.15a2.33 2.33 0 0 1 1.2-1.88 4.81 4.81 0 0 1 2.83-.8 4.27 4.27 0 0 1 1.87.71 4.89 4.89 0 0 0 1.55.7c1.87-2 3.59-3 5.18-3 .6 0 1.18.49 1.75 1.45a5.68 5.68 0 0 1 .84 3 14.62 14.62 0 0 1 -.61 2.7 14.39 14.39 0 0 0 -.59 3.53q0 2.63 2.67 6.58a3.85 3.85 0 0 0 .74-2.21 32.69 32.69 0 0 0 -.22-3.37 33.35 33.35 0 0 1 -.21-3.33q0-.59.09-2.22c.06-1.09.1-2 .1-2.71q0-6.15-.21-13.29t-.24-8.29v-1.18l.18-2.71a8.7 8.7 0 0 0 -2.75 1.55 4.35 4.35 0 0 1 -2.09 1.14 2.18 2.18 0 0 1 -1.23-.5 8.76 8.76 0 0 1 2.93-4.21q2.43-2.16 2.43-2.49a1.68 1.68 0 0 0 -.6-1.24 2 2 0 0 0 -1.31-.58 14.39 14.39 0 0 0 -3.73 1.58 11.62 11.62 0 0 1 -4.3 1.58 1.34 1.34 0 0 1 -.57-.25c-.33 0-.49-.14-.49-.41a17.47 17.47 0 0 1 2.55-2.86c.38-.38.88-.9 1.48-1.55a2.75 2.75 0 0 0 -.73-.09h-1.28c-.49 0-.85.07-1.07.07a9.27 9.27 0 0 0 -1.14.12 7.63 7.63 0 0 1 -1.23.11 1.92 1.92 0 0 1 -1.51-1 3.27 3.27 0 0 1 -.68-2c0-1.75.72-2.62 2.14-2.62a8.52 8.52 0 0 1 1.1.13 10.22 10.22 0 0 0 1.11.17l.49.05a1.1 1.1 0 0 0 1-.49 26.4 26.4 0 0 0 -2.36-2.15 2.66 2.66 0 0 1 -1.22-1.89c0-.49.34-.74 1-.73 1 0 3 1 6.12 3h1a2.14 2.14 0 0 0 1.63-.82 2.76 2.76 0 0 0 .75-1.84c0-.55-.77-1.55-2.32-3s-2.36-2.38-2.35-2.69a1 1 0 0 1 1.15-1.14 9 9 0 0 1 3 1.49 8.24 8.24 0 0 0 3.18 1.49c.33 0 .49-.35.5-1.06a5.17 5.17 0 0 0 -.44-1.68 5.07 5.07 0 0 1 -.47-1.53q0-2.3 3.86-2.27c2.14.01 3.14.34 3.14 1.01v.41a5.46 5.46 0 0 1 .08.66v1.56a11.61 11.61 0 0 0 -.17 1.64 3.17 3.17 0 0 0 .08.41v.57a5.43 5.43 0 0 0 2.14-2.37c.6-1 1.18-1.55 1.72-1.55.82 0 1.28.48 1.39 1.41q-3.65 6.14-3.64 6.79a2 2 0 0 0 .72 1.47 2.28 2.28 0 0 0 1.55.66c1.25 0 2.4-.82 3.45-2.48s2-2.49 2.8-2.49c.65 0 1 .47 1 1.4a3.65 3.65 0 0 1 -1.32 2.62c-1.92 1.69-2.91 2.58-3 2.69a2.62 2.62 0 0 0 1.63.5 8.36 8.36 0 0 0 1.72-.27 7.71 7.71 0 0 1 1.64-.28 2.8 2.8 0 0 1 2 .83 2.64 2.64 0 0 1 .86 1.97zm-14.82.33a4 4 0 0 0 -1.17-2.38c-.79-.94-1.45-1.41-2-1.41a3.66 3.66 0 0 0 -2.29.93 2.72 2.72 0 0 0 -1.16 2.09c0 2.62.85 3.94 2.6 3.95a4.3 4.3 0 0 0 2.78-1 2.79 2.79 0 0 0 1.24-2.18z" fill="#fff" stroke="#fff"/><path d="m196.7 67.39c-.16 1.9-.31 3.2-.38 4a28.25 28.25 0 0 1 -2.06 7.31 17.61 17.61 0 0 1 -3.58 5.4 9.09 9.09 0 0 1 -3 2 9.33 9.33 0 0 1 -3.35.69 6 6 0 0 1 -3.35-1 9.28 9.28 0 0 1 -3-3.12 26.27 26.27 0 0 1 -2.6-5.67 51 51 0 0 1 -2.21-8.3c-.45 2.29-1 4.57-1.6 6.78a27.22 27.22 0 0 1 -2.28 5.86 14 14 0 0 1 -3.12 4.19 6.87 6.87 0 0 1 -8.91-.08 12.25 12.25 0 0 1 -3.35-4.34 24 24 0 0 1 -2.13-5.86 38.76 38.76 0 0 1 -1.22-6.47c-.3-2.13-.53-4.11-.61-6s-.15-3.35-.15-4.57c0-.91 0-2.28.15-4.19s.23-3.73.46-5.71.46-3.8.76-5.55a11.19 11.19 0 0 1 1.07-3.58 2.53 2.53 0 0 1 1.22-1.18 5.23 5.23 0 0 1 1.9-.38 4.08 4.08 0 0 1 2.51.76c.61.53 1 1 1 1.44a1.74 1.74 0 0 1 -.23.84l-1.06 1.6a2.85 2.85 0 0 0 -.46 1 11.52 11.52 0 0 0 -.76 2.43 17.15 17.15 0 0 0 -.61 2.9 42.65 42.65 0 0 0 -.61 5.25c-.15 1.83-.23 3.43-.23 4.8a60 60 0 0 0 .31 6.47 38 38 0 0 0 1.06 6.54 22.82 22.82 0 0 0 1.14 3.58 19 19 0 0 0 1.3 3 8.89 8.89 0 0 0 1.37 2 1.71 1.71 0 0 0 1.29.76 3.62 3.62 0 0 0 3-1.83 19.55 19.55 0 0 0 1.9-3.8c.46-1.37.92-2.82 1.3-4.19s.6-2.36.76-3.12l.91-4.11.91-4.57a28.57 28.57 0 0 0 .69-5c0-.23-.08-.46-.08-.76s-.07-.39-.07-.69a.78.78 0 0 1 -.23-.53 1.62 1.62 0 0 1 -.08-.69 3 3 0 0 1 .84-2.05 2.88 2.88 0 0 1 2.13-.92 3 3 0 0 1 2.51 1 5.16 5.16 0 0 1 .61 2.52c0 .6-.07 1.21-.07 1.82a12.91 12.91 0 0 0 -.08 1.68 15.1 15.1 0 0 0 .08 1.9 16.53 16.53 0 0 0 .07 1.9 9.32 9.32 0 0 0 .38 2c.16 1 .31 2.06.61 3.28s.54 2.51.92 3.88a33.3 33.3 0 0 0 1.14 4 26.11 26.11 0 0 0 2.66 6.17c1 1.67 2.06 2.44 3.12 2.44a3.46 3.46 0 0 0 2.82-1.83 15.69 15.69 0 0 0 2-4.65 46.08 46.08 0 0 0 1.22-6.62 60.82 60.82 0 0 0 0-14.77c-.38-2.36-.69-4.79-1-7.23-.15-1.14-.38-2.28-.61-3.42a12.28 12.28 0 0 1 -.38-3.43 2.63 2.63 0 0 1 .91-1.9 2.79 2.79 0 0 1 2.06-.84 5.24 5.24 0 0 1 2.43.61 2.2 2.2 0 0 1 1.07 2.13c0 .53-.08 1-.08 1.45a9.92 9.92 0 0 0 -.07 1.44v.74c.3 3 .53 5.94.83 8.83s.31 5.86.31 8.76c.03 2.77-.05 4.97-.12 6.8z" fill="#d98e86" stroke="#d98e86"/><path d="m245 86a3.21 3.21 0 0 1 -2.82 1.21 4.92 4.92 0 0 1 -2.81-.91 2.6 2.6 0 0 1 -1.45-2.21 3.77 3.77 0 0 1 .15-1.29 9.11 9.11 0 0 1 .38-1.3c.15-.45.23-1 .38-1.44a8.14 8.14 0 0 0 .16-1.45c0-.46-.08-1.45-.08-2.82a35.51 35.51 0 0 1 -.23-3.8c-2.28.53-4.34 1-6.17 1.29s-3.88.69-5.7.92-3.81.45-5.71.6l-6.09.46a54.85 54.85 0 0 0 -.77 5.94c-.15 2-.22 3.88-.22 5.56a2.62 2.62 0 0 1 -.92 1.82 2.91 2.91 0 0 1 -2 1c-.3 0-.76-.07-1.29-.07-.61-.16-1.14-.31-1.6-.46a7.14 7.14 0 0 1 -1.29-.68 1.05 1.05 0 0 1 -.61-1 17.85 17.85 0 0 1 .15-2.75 24.06 24.06 0 0 1 .61-3l.61-3c.23-.92.53-2.06.83-3.35a8.55 8.55 0 0 1 -2.2-.23 3.3 3.3 0 0 1 -1.45-.46 1.52 1.52 0 0 1 -.84-.83 4.15 4.15 0 0 1 -.68-1.53 7.66 7.66 0 0 1 .46-1.14 7.54 7.54 0 0 1 .45-1 1.82 1.82 0 0 1 .84-.61 3.19 3.19 0 0 1 1.37-.23 6.24 6.24 0 0 1 1.52.23c.46.15 1.14.31 2.06.53.38-1.44 1-3.34 1.75-5.7s1.75-4.72 2.82-7.31 2.2-5.1 3.57-7.69a45.62 45.62 0 0 1 4.11-7.08 24.8 24.8 0 0 1 4.57-5 7.57 7.57 0 0 1 4.87-2 6.29 6.29 0 0 1 2.9.76 9.79 9.79 0 0 1 2.37 2.02 15.85 15.85 0 0 1 1.67 2.58 20.42 20.42 0 0 1 1.14 2.74c.54 1.76 1 3.51 1.45 5.33l1.14 5.48.91 5.64.77 5.48.76 5.71c.15 1.9.38 3.65.53 5.18s.23 3 .38 4.18.15 2.06.15 2.67a4.92 4.92 0 0 1 -.9 3.01zm-8-25.16c-.3-2.13-.61-4.18-.91-6.09a29.68 29.68 0 0 1 -.61-3c-.15-1.07-.38-2.13-.61-3.27l-.8-3.48a17.65 17.65 0 0 0 -1.14-3.27 2.82 2.82 0 0 0 -.46-.54 2 2 0 0 0 -.53-.23 3.42 3.42 0 0 0 -1.83.92 12.38 12.38 0 0 0 -2.28 2.51 54.23 54.23 0 0 0 -6.83 12.19 111.78 111.78 0 0 0 -4.8 13.86 73.66 73.66 0 0 0 11.12-.84 94 94 0 0 0 10.68-2.06c-.35-2.28-.65-4.49-1-6.7z" fill="#d98e86" stroke="#d98e86"/><path d="m265.66 86.5c-3.19.15-7.53.53-12.94 1.29a2.61 2.61 0 0 1 -2.05-1.14 3.06 3.06 0 0 1 -1-2.21c0-1.14.61-1.82 2-2 .38 0 1.67-.15 4-.3l-.38-20.56c0-6.24.07-12.33.38-18.34-1.15.15-1.91.23-2.21.23a3.12 3.12 0 0 1 -2.21-1 2.82 2.82 0 0 1 -1.14-2.29c0-.91.68-1.37 2.21-1.52 3-.15 5.48-.38 7.3-.61a11.09 11.09 0 0 0 2.9-.84 9.3 9.3 0 0 1 2.13-.6c.53 0 1.14.45 1.9 1.21a4.24 4.24 0 0 1 1.07 2.36c0 1.14-.92 1.75-2.59 1.91a29.62 29.62 0 0 1 -3 .3c-.53 6.4-.76 12.1-.76 17 0 9.44.15 16.75.46 22 .76-.15 1.67-.46 2.74-.76a4.86 4.86 0 0 1 2.43 1.14 3.28 3.28 0 0 1 1.22 2.13c-.02 1.68-.86 2.6-2.46 2.6z" fill="#d98e86" stroke="#d98e86"/><path d="m344.91 67.39c-.15 1.9-.3 3.2-.38 4a28.27 28.27 0 0 1 -2 7.31 17.79 17.79 0 0 1 -3.58 5.4 9.14 9.14 0 0 1 -6.32 2.67 6 6 0 0 1 -3.35-1 9.3 9.3 0 0 1 -3.05-3.12 26.29 26.29 0 0 1 -2.63-5.65 51 51 0 0 1 -2.21-8.3c-.46 2.29-1 4.57-1.6 6.78a27.75 27.75 0 0 1 -2.28 5.86 14.17 14.17 0 0 1 -3.13 4.19 6.86 6.86 0 0 1 -8.9-.08 12.14 12.14 0 0 1 -3.35-4.34 23.57 23.57 0 0 1 -2.13-5.88 38.76 38.76 0 0 1 -1.22-6.47 59.14 59.14 0 0 1 -.61-6c-.15-1.83-.15-3.35-.15-4.57 0-.91 0-2.28.15-4.19s.23-3.73.46-5.71a55.13 55.13 0 0 1 .76-5.55 11.23 11.23 0 0 1 1.06-3.58 2.53 2.53 0 0 1 1.22-1.16 5.27 5.27 0 0 1 1.9-.38 4.11 4.11 0 0 1 2.52.76c.61.53 1 1 1 1.44a1.74 1.74 0 0 1 -.23.84l-1.07 1.6a2.66 2.66 0 0 0 -.45 1 11.53 11.53 0 0 0 -.77 2.43 18.18 18.18 0 0 0 -.6 2.9 39.1 39.1 0 0 0 -.61 5.25c-.16 1.83-.23 3.43-.23 4.8a60.06 60.06 0 0 0 .3 6.47 38 38 0 0 0 1.07 6.54 20.9 20.9 0 0 0 1.14 3.58 19 19 0 0 0 1.29 3 9.24 9.24 0 0 0 1.37 2 1.71 1.71 0 0 0 1.3.76 3.59 3.59 0 0 0 3-1.83 20.16 20.16 0 0 0 1.91-3.8c.45-1.37.91-2.82 1.29-4.19s.61-2.36.76-3.12l.92-4.11.91-4.57a28.31 28.31 0 0 0 .68-5c0-.23-.07-.46-.07-.76s-.08-.39-.08-.69a.83.83 0 0 1 -.23-.53 1.84 1.84 0 0 1 -.07-.69 3 3 0 0 1 .84-2.05 2.86 2.86 0 0 1 2.13-.92 3 3 0 0 1 2.51 1 5.16 5.16 0 0 1 .61 2.52c0 .6-.08 1.21-.08 1.82a14.74 14.74 0 0 0 -.07 1.68 17.24 17.24 0 0 0 .07 1.9 14.47 14.47 0 0 0 .08 1.9 9.32 9.32 0 0 0 .38 2 32.11 32.11 0 0 0 .61 3.28c.23 1.21.53 2.51.91 3.88a37.39 37.39 0 0 0 1.14 4 25.7 25.7 0 0 0 2.67 6.17c1 1.67 2.05 2.44 3.12 2.44a3.48 3.48 0 0 0 2.82-1.83 15.7 15.7 0 0 0 2-4.65 43.48 43.48 0 0 0 1.22-6.62 59.5 59.5 0 0 0 0-14.77c-.38-2.36-.68-4.79-1-7.23-.15-1.14-.38-2.28-.61-3.42a12.67 12.67 0 0 1 -.38-3.43 2.64 2.64 0 0 1 .92-1.9 2.76 2.76 0 0 1 2.05-.84 5.25 5.25 0 0 1 2.44.61 2.21 2.21 0 0 1 1.06 2.13c0 .53-.07 1-.07 1.45a8.69 8.69 0 0 0 -.08 1.44v.74c.31 3 .53 5.94.84 8.83.15 2.89.3 5.86.3 8.76.01 2.77-.05 4.97-.14 6.8z" fill="#d98e86" stroke="#d98e86"/><path d="m393.17 86a3.19 3.19 0 0 1 -2.81 1.21 5 5 0 0 1 -2.82-.91 2.6 2.6 0 0 1 -1.45-2.21 3.55 3.55 0 0 1 .16-1.29 8 8 0 0 1 .38-1.3c.15-.45.23-1 .38-1.44a9.22 9.22 0 0 0 .15-1.45c0-.46-.08-1.45-.08-2.82a35.34 35.34 0 0 1 -.22-3.8c-2.29.53-4.34 1-6.17 1.29q-3 .57-5.71.92c-1.9.3-3.81.45-5.71.6l-6.09.46a52.44 52.44 0 0 0 -.76 5.94c-.15 2-.23 3.88-.23 5.56a2.61 2.61 0 0 1 -.91 1.82 2.93 2.93 0 0 1 -2 1c-.31 0-.76-.07-1.3-.07-.6-.16-1.14-.31-1.59-.46a7.28 7.28 0 0 1 -1.3-.68 1.07 1.07 0 0 1 -.61-1 16.75 16.75 0 0 1 .16-2.75 25.91 25.91 0 0 1 .6-3l.61-3c.23-.92.54-2.06.84-3.35a8.69 8.69 0 0 1 -2.21-.23 3.21 3.21 0 0 1 -1.44-.46 1.49 1.49 0 0 1 -.84-.83 4.16 4.16 0 0 1 -.69-1.53 10.68 10.68 0 0 1 .46-1.14 9.81 9.81 0 0 1 .46-1 1.78 1.78 0 0 1 .83-.61 3.28 3.28 0 0 1 1.38-.23 6.31 6.31 0 0 1 1.52.23c.45.15 1.14.31 2.05.53.38-1.44 1-3.34 1.75-5.7s1.75-4.72 2.82-7.31 2.21-5.1 3.58-7.69a45.62 45.62 0 0 1 4.11-7.08 24.8 24.8 0 0 1 4.57-5 7.54 7.54 0 0 1 4.87-2 6.25 6.25 0 0 1 2.89.76 9.42 9.42 0 0 1 2.36 2 15.26 15.26 0 0 1 1.68 2.58 23.43 23.43 0 0 1 1.16 2.77c.53 1.76 1 3.51 1.44 5.33l1.15 5.48.91 5.64.76 5.48.74 5.74c.15 1.9.38 3.65.54 5.18s.22 3 .38 4.18.15 2.06.15 2.67a4.92 4.92 0 0 1 -.9 2.97zm-7.91-25.13c-.31-2.13-.61-4.18-.92-6.09-.22-.91-.45-2-.6-3s-.39-2.13-.61-3.27l-.84-3.51a19.24 19.24 0 0 0 -1.14-3.27 3.78 3.78 0 0 0 -.46-.54 2.13 2.13 0 0 0 -.53-.23 3.36 3.36 0 0 0 -1.83.92 12.38 12.38 0 0 0 -2.28 2.51 53.85 53.85 0 0 0 -6.85 12.18 108.59 108.59 0 0 0 -4.8 13.86 73.52 73.52 0 0 0 11.11-.84 94.18 94.18 0 0 0 10.74-2.06c-.38-2.27-.69-4.48-.99-6.69z" fill="#d98e86" stroke="#d98e86"/><path d="m413.88 86.5c-3.2.15-7.54.53-12.94 1.29a2.63 2.63 0 0 1 -2.06-1.14 3.1 3.1 0 0 1 -1-2.21c0-1.14.61-1.82 2-2 .38 0 1.68-.15 4-.3l-.38-20.56c0-6.24.08-12.33.38-18.34-1.14.15-1.9.23-2.21.23a3.08 3.08 0 0 1 -2.2-1 2.83 2.83 0 0 1 -1.15-2.29c0-.91.69-1.37 2.21-1.52 3-.15 5.48-.38 7.31-.61a11.14 11.14 0 0 0 2.89-.84 9.58 9.58 0 0 1 2.13-.6c.54 0 1.15.45 1.91 1.21a4.29 4.29 0 0 1 1.06 2.36c0 1.14-.91 1.75-2.58 1.91a29.62 29.62 0 0 1 -3 .3c-.54 6.4-.76 12.1-.76 17 0 9.44.15 16.75.45 22 .76-.15 1.68-.46 2.74-.76a4.93 4.93 0 0 1 2.44 1.14 3.28 3.28 0 0 1 1.22 2.13c-.02 1.68-.86 2.6-2.46 2.6z" fill="#d98e86" stroke="#d98e86"/></g></g></svg>